<svg xmlns:dc="http://purl.org/dc/elements/1.1/" xmlns:cc="http://creativecommons.org/ns#" xmlns:rdf="http://www.w3.org/1999/02/22-rdf-syntax-ns#" xmlns:svg="http://www.w3.org/2000/svg" xmlns="http://www.w3.org/2000/svg" xmlns:inkscape="http://www.inkscape.org/namespaces/inkscape" viewBox="20 0 60 100" version="1.1" x="0px" y="0px"
><g transform="translate(0,-952.36216)"><path style="opacity:1;fill:#000000;fill-opacity:1;fill-rule:nonzero;stroke:#000000;stroke-width:1;stroke-linecap:square;stroke-linejoin:miter;stroke-miterlimit:4;stroke-dasharray:none;stroke-opacity:1" d="m 71.28421,972.4693 0.627838,0 0,12.99633 -0.627838,0 z"/><path style="opacity:1;fill:#000000;fill-opacity:1;fill-rule:nonzero;stroke:#000000;stroke-width:1;stroke-linecap:square;stroke-linejoin:miter;stroke-miterlimit:4;stroke-dasharray:none;stroke-opacity:1" d="m 71.266876,989.94366 0.662497,0 0,5.8753 -0.662497,0 z"/><path style="opacity:1;fill:none;fill-opacity:1;fill-rule:nonzero;stroke:#000000;stroke-width:1;stroke-linecap:square;stroke-linejoin:miter;stroke-miterlimit:4;stroke-dasharray:none;stroke-opacity:1" d="m 33.777591,957.73224 31.689985,0 c 3.114612,0 5.622043,2.50743 5.622043,5.62204 l 0,78.01562 c 0,3.1146 -2.507431,5.622 -5.622043,5.622 l -31.689985,0 c -3.114612,0 -5.622043,-2.5074 -5.622043,-5.622 l 0,-78.01562 c 0,-3.11461 2.507431,-5.62204 5.622043,-5.62204 z"/><path style="opacity:1;fill:none;fill-opacity:1;fill-rule:nonzero;stroke:#000000;stroke-width:1;stroke-linecap:square;stroke-linejoin:miter;stroke-miterlimit:4;stroke-dasharray:none;stroke-opacity:1" d="m 30.558624,967.93756 38.636303,0 0,68.84924 -38.636303,0 z"/><path style="opacity:1;fill:none;fill-opacity:1;fill-rule:nonzero;stroke:#000000;stroke-width:1;stroke-linecap:square;stroke-linejoin:miter;stroke-miterlimit:4;stroke-dasharray:none;stroke-opacity:1" d="m 46.616948,1040.5801 6.51963,0 c 0.855467,0 1.544164,0.6887 1.544164,1.5442 0,0.8554 -0.688697,1.5441 -1.544164,1.5441 l -6.51963,0 c -0.855467,0 -1.544164,-0.6887 -1.544164,-1.5441 0,-0.8555 0.688697,-1.5442 1.544164,-1.5442 z"/><path style="opacity:1;fill:#000000;fill-opacity:1;fill-rule:nonzero;stroke:#000000;stroke-width:1;stroke-linecap:square;stroke-linejoin:miter;stroke-miterlimit:4;stroke-dasharray:none;stroke-opacity:1" d="m 39.026744,959.80963 1.590154,0 c 0.317227,0 0.572612,0.25539 0.572612,0.57261 0,0.31723 -0.255385,0.57262 -0.572612,0.57262 l -1.590154,0 c -0.317227,0 -0.572612,-0.25539 -0.572612,-0.57262 0,-0.31722 0.255385,-0.57261 0.572612,-0.57261 z"/><path style="opacity:1;fill:#000000;fill-opacity:1;fill-rule:nonzero;stroke:#000000;stroke-width:1;stroke-linecap:square;stroke-linejoin:miter;stroke-miterlimit:4;stroke-dasharray:none;stroke-opacity:1" d="m 43.002199,962.36383 13.834337,0 c 0.117926,0 0.212862,0.0949 0.212862,0.21286 0,0.11793 -0.09494,0.21286 -0.212862,0.21286 l -13.834337,0 c -0.117925,0 -0.212862,-0.0949 -0.212862,-0.21286 0,-0.11792 0.09494,-0.21286 0.212862,-0.21286 z"/><path style="opacity:1;fill:#000000;fill-opacity:1;fill-rule:nonzero;stroke:#000000;stroke-width:1;stroke-linecap:square;stroke-linejoin:miter;stroke-miterlimit:4;stroke-dasharray:none;stroke-opacity:1" d="m 61.129989,962.57672 a 0.63606155,0.63606155 0 0 1 -0.636062,0.63606 0.63606155,0.63606155 0 0 1 -0.636062,-0.63606 0.63606155,0.63606155 0 0 1 0.636062,-0.63606 0.63606155,0.63606155 0 0 1 0.636062,0.63606 z"/></g>
</svg>